<svg xmlns="http://www.w3.org/2000/svg" viewBox="0 0 64 64" role="img" aria-label="China flag">
  <rect width="64" height="64" rx="12" fill="#de2910"/>
  <path fill="#ffde00" d="m14 11 2.47 7.6h7.99l-6.46 4.7 2.47 7.6L14 26.2 7.53 30.9 10 23.3l-6.46-4.7h7.99z"/>
  <path fill="#ffde00" d="m31.17 8.23.89 2.73h2.87l-2.32 1.68.89 2.73-2.33-1.69-2.32 1.69.89-2.73-2.32-1.68h2.87z" transform="rotate(23 31.17 11.8)"/>
  <path fill="#ffde00" d="m38.36 16.1.89 2.73h2.87l-2.32 1.69.89 2.73-2.33-1.69-2.32 1.69.89-2.73-2.32-1.69h2.87z" transform="rotate(45 38.36 19.68)"/>
  <path fill="#ffde00" d="m38.36 27.08.89 2.73h2.87L39.8 31.5l.89 2.73-2.33-1.69-2.32 1.69.89-2.73-2.32-1.69h2.87z" transform="rotate(69 38.36 30.66)"/>
  <path fill="#ffde00" d="m31.17 34.85.89 2.73h2.87l-2.32 1.69.89 2.73-2.33-1.69L28.85 42l.89-2.73-2.32-1.69h2.87z" transform="rotate(20 31.17 38.43)"/>
</svg>
